<?xml version="1.0" encoding="UTF-8" standalone="no"?>
<!-- Created with Inkscape (http://www.inkscape.org/) -->

<svg
   width="76.088013mm"
   height="89.250282mm"
   viewBox="0 0 76.088013 89.250282"
   version="1.1"
   id="svg1"
   xml:space="preserve"
   xmlns="http://www.w3.org/2000/svg"
   xmlns:svg="http://www.w3.org/2000/svg"><defs
     id="defs1"><style
       id="style1">
      .cls-1 {
        fill: #fff;
        stroke-width: 0px;
      }
    </style></defs><g
     id="layer1"
     transform="translate(-49.765055,-86.181789)"><path
       id="path4-1-6"
       style="fill:#ffffff;fill-opacity:1;stroke:#000000;stroke-width:2.13783;stroke-dasharray:none;stroke-opacity:1"
       d="m 74.452509,165.09443 39.574541,-11.64331 m -41.983704,4.28775 39.574544,-11.64331 m -41.674161,3.43573 39.956301,-11.19795 m -41.890709,3.74616 39.574549,-11.64331 m -41.674166,3.43573 39.956306,-11.19795 M 64.070052,126.93123 103.6446,115.28792 M 89.528988,87.549452 94.342859,102.35098 108.06464,98.346918 M 67.574141,174.10914 124.54392,158.84413 108.25867,98.06675 89.660081,87.328853 51.025245,97.679664 Z" /><g
       id="g22"
       transform="matrix(0.22617555,-0.06060357,0.06060357,0.22617555,57.40936,101.39262)"
       style="fill:#4391e9;fill-opacity:1"><path
         class="cls-1"
         d="m 34.11,45.28 v 0 c 0,0 -31.76,0 -31.76,0 H 0.01 l 27.92,45.36 v 0.08 l 0.02,-0.04 0.02,0.04 L 28,90.59 55.89,45.28 H 34.09 Z M 3.6,47.3 h 24.34 v 39.61 z"
         id="path20"
         style="fill:#4391e9;fill-opacity:1" /><circle
         class="cls-1"
         cx="4.0599999"
         cy="4.0599999"
         r="4.0599999"
         id="circle20"
         style="fill:#4391e9;fill-opacity:1" /><circle
         class="cls-1"
         cx="51.830002"
         cy="4.0599999"
         r="4.0599999"
         id="circle21"
         style="fill:#4391e9;fill-opacity:1" /><circle
         class="cls-1"
         cx="27.9"
         cy="4.0599999"
         r="4.0599999"
         id="circle22"
         style="fill:#4391e9;fill-opacity:1" /><path
         class="cls-1"
         d="M 55.93,12.15 38.66,22.78 28.07,12.19 26.64,13.62 v 0 c 0,0 -9.22,9.23 -9.22,9.23 L 0.04,12.15 V 40.12 H 3 l 0.02,0.02 0.02,-0.02 h 20.28 c 0,0 0,0 0,0 h 32.62 v -26.13 0 -1.84 z m -36.72,11.8 8.88,-8.88 8.8,8.8 -8.9,5.48 z m 34.7,14.14 H 42.18 L 29.88,30.52 53.91,15.81 Z"
         id="path22"
         style="fill:#4391e9;fill-opacity:1" /></g></g></svg>
